<?xml version="1.0" standalone="no"?>
<!DOCTYPE svg PUBLIC "-//W3C//DTD SVG 20010904//EN"
 "http://www.w3.org/TR/2001/REC-SVG-20010904/DTD/svg10.dtd">
<svg version="1.0" xmlns="http://www.w3.org/2000/svg"
 width="540.000000pt" height="540.000000pt" viewBox="0 0 540.000000 540.000000"
 preserveAspectRatio="xMidYMid meet">
<metadata>
Created by potrace 1.14, written by Peter Selinger 2001-2017
</metadata>
<g transform="translate(0.000000,540.000000) scale(0.100000,-0.100000)"
fill="#000000" stroke="none">
<path d="M3309 4393 c-19 -21 -49 -63 -68 -93 -124 -202 -237 -338 -303 -365
-21 -8 -38 -17 -38 -19 0 -12 116 -68 200 -97 69 -24 116 -34 173 -36 43 -1
82 -5 87 -8 6 -3 7 0 4 8 -3 8 5 18 20 25 23 10 24 15 31 146 8 139 2 264 -19
396 -14 93 -33 102 -87 43z"/>
<path d="M4042 4230 c-24 -11 -109 -79 -190 -151 -81 -73 -176 -154 -212 -181
-76 -58 -220 -129 -266 -131 -18 -1 -29 -6 -26 -11 3 -5 -28 -7 -74 -3 -96 7
-262 58 -424 131 l-115 51 -140 -1 c-151 -2 -316 -25 -485 -70 -118 -32 -248
-41 -332 -24 -35 6 -119 30 -188 52 -69 21 -159 46 -200 53 -82 15 -300 35
-385 35 -84 0 -90 -14 -90 -215 0 -148 2 -163 23 -204 24 -46 20 -60 -20 -61
-10 0 -42 -9 -72 -20 -74 -28 -167 -121 -198 -198 -30 -75 -31 -195 -3 -267
42 -109 151 -230 278 -310 49 -31 55 -42 82 -139 18 -66 55 -109 142 -169 92
-62 136 -71 277 -57 122 11 122 11 246 -20 69 -17 148 -37 175 -45 28 -8 77
-19 110 -25 122 -23 452 -113 594 -162 166 -57 285 -116 386 -191 84 -63 162
-157 171 -206 4 -20 3 -95 -3 -167 -9 -122 -12 -134 -48 -205 -167 -320 -484
-533 -1092 -733 -159 -52 -541 -156 -628 -172 -22 -3 -44 -9 -49 -12 -12 -6
106 -74 249 -142 231 -111 508 -195 775 -237 164 -26 616 -26 780 0 573 89
1085 342 1494 737 284 274 526 649 660 1022 25 70 46 137 46 149 0 29 -87 134
-202 245 -114 109 -173 158 -308 257 -58 42 -127 97 -155 123 -27 25 -153 136
-280 248 -331 292 -369 337 -369 441 -1 46 8 83 36 155 83 216 117 396 118
630 2 234 4 220 -22 220 -13 0 -42 -9 -66 -20z m-2334 -1109 c128 -122 165
-248 97 -336 -17 -23 -33 -34 -42 -31 -8 3 -12 2 -9 -3 10 -16 -77 -43 -156
-48 -43 -3 -78 -3 -78 1 0 4 18 28 39 54 65 78 84 126 89 223 3 61 0 102 -12
142 -9 30 -16 58 -16 61 0 16 22 0 88 -63z"/>
</g>
</svg>
